inDegrees=yes
name=ik_S40_A03_T02
DataType=double
version=3
OpenSimVersion=4.3-2021-08-27-4bc7ad9
endheader
time	pelvis_tilt	pelvis_list	pelvis_rotation	pelvis_tx	pelvis_ty	pelvis_tz	hip_flexion_r	hip_adduction_r	hip_rotation_r	knee_angle_r	knee_angle_r_beta	ankle_angle_r	subtalar_angle_r	mtp_angle_r	hip_flexion_l	hip_adduction_l	hip_rotation_l	knee_angle_l	knee_angle_l_beta	ankle_angle_l	subtalar_angle_l	mtp_angle_l	lumbar_extension	lumbar_bending	lumbar_rotation	arm_flex_r	arm_add_r	arm_rot_r	elbow_flex_r	pro_sup_r	wrist_flex_r	wrist_dev_r	arm_flex_l	arm_add_l	arm_rot_l	elbow_flex_l	pro_sup_l	wrist_flex_l	wrist_dev_l
22.49999999999961	2.305637893115699	1.035053782579728	-69.69193103504556	0	0.9399999999999999	0	26.8757103697976	-12.83002163333422	-8.755659018650077	50.61379390870382	0.8833773506327319	0	0	0	8.602104314394969	11.86839543006706	7.243875471497242	7.629229224312917	0.1331551693536334	0	0	0	0	0	0	44.03801009430224	-44.03801009430224	4.993365591676421	84.90674204579491	85.00663468232989	0	0	44.03801009430224	-44.03801009430224	4.993365591676421	84.90674204579491	85.00663468232838	0	0
22.51999999999961	2.248611588113767	0.9791439142836807	-69.36798546555777	0	0.9399999999999999	0	28.92799222655536	-12.35189334931687	-6.386334522390512	49.68249843654107	0.8671231783345766	0	0	0	7.224181665704171	11.50885274820177	7.768451631948198	7.196898340714455	0.1256095719767839	0	0	0	0	0	0	44.04029756083692	-44.04029756083692	4.993393131784988	84.90712917664312	85.00660714222226	0	0	44.04029756083692	-44.04029756083692	4.993393131784988	84.90712917664312	85.00660714222076	0	0
22.53999999999961	2.173277153747408	0.7468725048610098	-68.86228812403141	0	0.9399999999999999	0	30.17823589941824	-11.22787640531357	-4.557985633544528	40.88027008187516	0.7134953120332534	0	0	0	5.754184335719281	11.25480095942232	7.213544610547013	7.575745829169608	0.1322217080132375	0	0	0	0	0	0	44.04448391830803	-44.04448391830803	4.993442992847487	84.9078300727457	85.00655728116141	0	0	44.04448391830803	-44.04448391830803	4.993442992847487	84.9078300727457	85.00655728115996	0	0
22.55999999999961	2.156506304960256	0.4462364556792251	-68.51924404485572	0	0.9399999999999999	0	30.52156537763451	-10.18146845610961	-3.765557617198288	34.84769375644785	0.6082069927766859	0	0	0	4.042301898819448	10.73530338190129	6.63664018914407	7.791636437185669	0.1359897099472503	0	0	0	0	0	0	44.04498972480867	-44.04498972480867	4.993449973237151	84.90792819600502	85.00655030077192	0	0	44.04498972480867	-44.04498972480867	4.993449973237151	84.90792819600502	85.00655030077047	0	0
22.57999999999961	2.1539472452563	0.2509087864371639	-68.36707612243924	0	0.9399999999999999	0	30.54693909481929	-9.809205124553738	-3.74688445355242	31.57033741259002	0.5510063338152434	0	0	0	2.44480864038525	10.40796421680392	6.444092094284488	7.732624075398399	0.1349597499346843	0	0	0	0	0	0	44.04531584247218	-44.04531584247218	4.993454462392397	84.90799130000934	85.00654581161685	0	0	44.04531584247218	-44.04531584247218	4.993454462392397	84.90799130000934	85.00654581161538	0	0
22.59999999999961	2.175213128020393	0.232442563301797	-68.35475704903433	0	0.9399999999999999	0	30.06272883149054	-9.699259287405296	-6.229657430415493	20.04597029550437	0.3498681834135319	0	0	0	1.056344176535413	10.08622505039641	6.239848168088542	7.688675144341454	0.1341926963850086	0	0	0	0	0	0	44.0508371370304	-44.0508371370304	4.993519735646243	84.90890884499601	85.00648053836511	0	0	44.0508371370304	-44.0508371370304	4.993519735646243	84.90890884499601	85.00648053836375	0	0
22.61999999999961	2.203383824092811	0.3166049383904987	-68.64276587589005	0	0.9399999999999999	0	29.50684514984601	-9.12320769099618	-8.73386953198057	16.37069881168686	0.2857225951162588	0	0	0	-0.2312421623548627	9.997083697421811	6.508562914589336	7.510425637709105	0.1310816556042187	0	0	0	0	0	0	44.05106757916667	-44.05106757916667	4.99352352512845	84.90896211372565	85.00647674888306	0	0	44.05106757916667	-44.05106757916667	4.99352352512845	84.90896211372565	85.0064767488817	0	0
22.63999999999961	2.268777681077484	0.3929672581372298	-69.06870504605324	0	0.9399999999999999	0	28.59174966309303	-7.896312396295656	-12.30243056048455	9.650005865161916	0.1684243751838394	0	0	0	-1.475435827479213	10.18581042842268	7.496013972553945	7.292190025240392	0.1272727256215332	0	0	0	0	0	0	44.05162186548458	-44.05162186548458	4.993531045769778	84.90906783128978	85.00646922824198	0	0	44.05162186548458	-44.05162186548458	4.993531045769778	84.90906783128978	85.0064692282406	0	0
22.65999999999961	2.371796193960122	0.4540768107780188	-69.5470990646817	0	0.9399999999999999	0	27.3088434988823	-6.064042537905783	-16.80462772060111	3.716671573195035	0.06486815616753078	0	0	0	-2.805092480484088	10.43125975176693	8.071892028712371	7.079806533800684	0.1235659344190291	0	0	0	0	0	0	44.05234254375383	-44.05234254375383	4.993540628235221	84.90920253188297	85.00645964577689	0	0	44.05234254375383	-44.05234254375383	4.993540628235221	84.90920253188297	85.00645964577551	0	0
22.67999999999961	2.49085248122196	0.292829104725238	-69.95730059971602	0	0.9399999999999999	0	26.42751684392375	-4.148372591794025	-18.67156707088194	0.5143777944429202	0.008977586112175549	0	0	0	-4.249630130288729	10.5370577016545	7.253521969337773	7.420662823573897	0.1295149989517036	0	0	0	0	0	0	44.05019610373917	-44.05019610373917	4.993516827650359	84.90886796754218	85.00648344636099	0	0	44.05019610373917	-44.05019610373917	4.993516827650359	84.90886796754218	85.00648344635952	0	0
22.6999999999996	2.602440277813475	0.05051274619788768	-70.32404107642948	0	0.9399999999999999	0	25.51296386043855	-3.618739999501333	-19.18912732738309	0.6107936920463926	0.01066036097662185	0	0	0	-5.798106500740632	10.55789878713146	5.90829817236384	8.0300390338707	0.1401506202047082	0	0	0	0	0	0	44.05038291946685	-44.05038291946685	4.993519386903044	84.90890394292744	85.00648088710835	0	0	44.05038291946685	-44.05038291946685	4.993519386903044	84.90890394292744	85.0064808871069	0	0
22.7199999999996	2.621139291203998	-0.06447202235795582	-70.69305959921834	0	0.9399999999999999	0	24.60720643274915	-3.225947554831814	-18.82050282854766	2.517732261960165	0.04394271765488925	0	0	0	-6.903287954811574	10.49021963902493	4.332080984836737	8.747385245201416	0.1526706734691362	0	0	0	0	0	0	44.05502515733774	-44.05502515733774	4.993573576060935	84.90966567894331	85.00642669795228	0	0	44.05502515733774	-44.05502515733774	4.993573576060935	84.90966567894331	85.00642669795083	0	0
22.7399999999996	2.611810724239973	-0.2056120314850585	-70.92346541778983	0	0.9399999999999999	0	24.5080716327185	-3.002844842889621	-18.64051086621803	3.701488931270294	0.06460316907679273	0	0	0	-7.769185077354805	10.19687043479159	2.862392827667184	10.02222420133774	0.1749208106864027	0	0	0	0	0	0	44.05537922497586	-44.05537922497586	4.993578422936504	84.90973381141566	85.00642185107692	0	0	44.05537922497586	-44.05537922497586	4.993578422936504	84.90973381141566	85.00642185107547	0	0
22.7599999999996	2.696777782936767	-0.3377393343317233	-70.84377586804034	0	0.9399999999999999	0	21.8984356130335	-2.560421664166701	-16.70900933119747	2.58740652860545	0.04515876301176194	0	0	0	-8.647008896150957	10.19963261195811	2.277548250259486	12.06081192678628	0.2105008785862219	0	0	0	0	0	0	44.05737393877526	-44.05737393877526	4.993602158421861	84.91006746072392	85.00639811559233	0	0	44.05737393877526	-44.05737393877526	4.993602158421861	84.91006746072392	85.00639811559091	0	0
22.7799999999996	2.624560989327119	-0.2603108820186691	-69.6514202205551	0	0.9399999999999999	0	20.28118997422441	-3.112034701655441	-15.44338283140721	0.1038504583320738	0.001812532427599866	0	0	0	-8.995764356218404	10.03716695082421	2.786927310766508	13.93571831621117	0.2432241682483652	0	0	0	0	0	0	44.05875252345162	-44.05875252345162	4.993618796665117	84.91030134423166	85.00638147734969	0	0	44.05875252345162	-44.05875252345162	4.993618796665117	84.91030134423166	85.00638147734817	0	0
22.7999999999996	2.331408018781726	0.01591942560660301	-69.31391129417167	0	0.9399999999999999	0	19.45887274432858	-2.598103345901714	-15.7648064373228	2.017973534535641	0.03522028239575443	0	0	0	-8.733429980425646	9.486643739723696	1.680199484394248	16.51883727788776	0.2883080991003188	0	0	0	0	0	0	44.06520736406383	-44.06520736406383	4.993693477109131	84.91135112585813	85.00630679690811	0	0	44.06520736406383	-44.06520736406383	4.993693477109131	84.91135112585813	85.0063067969067	0	0
22.8199999999996	2.327652399317792	0.0189269528843162	-69.32089193928604	0	0.9399999999999999	0	19.60034144169929	-3.360789487559015	-12.65573860659106	6.685052137375743	0.116676170464691	0	0	0	-8.401115623760335	8.97830238024512	-1.62244677747668	19.69960760056246	0.3438230139807149	0	0	0	0	0	0	44.06908391390329	-44.06908391390329	4.993738834806435	84.91198871819388	85.00626143921225	0	0	44.06908391390329	-44.06908391390329	4.993738834806435	84.91198871819388	85.00626143921086	0	0
22.8399999999996	1.860338667504574	0.3253201551414607	-70.14472447274389	0	0.9399999999999999	0	20.71494471705916	-3.226203665313758	-7.43076949576453	6.909063295216749	0.1205859027302213	0	0	0	-6.249504762260863	8.139796706140233	-5.136758872801321	23.92767082839682	0.4176166382889235	0	0	0	0	0	0	44.07187904091888	-44.07187904091888	4.993771905484733	84.91245359213779	85.00622836853502	0	0	44.07187904091888	-44.07187904091888	4.993771905484733	84.91245359213779	85.00622836853364	0	0
22.8599999999996	1.876410137079877	0.3002553920322166	-70.14107148211278	0	0.9399999999999999	0	20.06868770562658	-3.351500342282657	-6.622923577321925	7.110441086435421	0.1241006082273808	0	0	0	-3.401828058920845	7.107216854712626	-6.448787788704809	29.85355076799718	0.5210427543128325	0	0	0	0	0	0	44.08141874447726	-44.08141874447726	4.99388090725271	84.9139858279235	85.00611936677065	0	0	44.08141874447726	-44.08141874447726	4.99388090725271	84.9139858279235	85.0061193667693	0	0
22.8799999999996	1.290187973859538	0.7455566619414553	-70.94074913967283	0	0.9399999999999999	0	18.631453681216	-2.179641466611121	-9.239505759912371	8.944847378055085	0.1561170378354432	0	0	0	1.096779227525809	5.417309582162043	-6.441113077220206	37.11163368681113	0.6477201986288963	0	0	0	0	0	0	44.08739798154379	-44.08739798154379	4.993949286459166	84.91494703313433	85.0060509875665	0	0	44.08739798154379	-44.08739798154379	4.993949286459166	84.91494703313433	85.00605098756515	0	0
22.8999999999996	1.272874476285539	0.7402781927068002	-70.93164184429779	0	0.9399999999999999	0	16.30325857280997	-1.874916047613521	-12.26072330171393	7.250299970073445	0.1265416062350279	0	0	0	4.620272480430342	4.977523825722901	-4.233498332456444	40.68992145291774	0.7101731017312893	0	0	0	0	0	0	44.08959432417824	-44.08959432417824	4.993974833695249	84.91530615016369	85.00602544033127	0	0	44.08959432417824	-44.08959432417824	4.993974833695249	84.91530615016369	85.00602544032992	0	0
22.9199999999996	1.029276079449047	0.8053268840967706	-70.84527607609289	0	0.9399999999999999	0	15.03252317999987	-1.854298424475124	-12.38908433729104	5.697775208155776	0.09944493742082355	0	0	0	7.067919493205468	3.268742270502623	-3.995881332430559	45.77963023207067	0.799005277895169	0	0	0	0	0	0	44.09707517627791	-44.09707517627791	4.994057674669833	84.91647064406533	85.00594259935941	0	0	44.09707517627791	-44.09707517627791	4.994057674669833	84.91647064406533	85.00594259935806	0	0
